<svg width="152" height="152" viewBox="0 0 152 152" fill="none" xmlns="http://www.w3.org/2000/svg">
<path d="M69.8656 132.375V118.848C64.308 117.59 59.5106 115.178 55.4734 111.613C51.4363 108.047 48.4739 103.014 46.5864 96.5125L58.226 91.7937C59.7989 96.8271 62.1321 100.655 65.2255 103.276C68.3189 105.898 72.3823 107.208 77.4156 107.208C81.7149 107.208 85.3588 106.238 88.3474 104.298C91.3359 102.359 92.8302 99.3438 92.8302 95.2542C92.8302 91.584 91.6767 88.6741 89.3698 86.5245C87.0628 84.3748 81.7149 81.9368 73.326 79.2104C64.308 76.3792 58.1211 72.9974 54.7656 69.0651C51.41 65.1328 49.7323 60.3354 49.7323 54.6729C49.7323 47.8569 51.9343 42.5615 56.3385 38.7865C60.7427 35.0115 65.2517 32.8618 69.8656 32.3375V19.125H82.4489V32.3375C87.692 33.1764 92.0175 35.0901 95.4255 38.0786C98.8335 41.0672 101.324 44.7111 102.897 49.0104L91.2573 54.0438C89.9989 50.6882 88.2163 48.1715 85.9093 46.4937C83.6024 44.816 80.4566 43.9771 76.4718 43.9771C71.858 43.9771 68.3451 44.9995 65.9333 47.0443C63.5215 49.0891 62.3156 51.6319 62.3156 54.6729C62.3156 58.1333 63.8885 60.8597 67.0343 62.8521C70.1802 64.8444 75.633 66.9417 83.3927 69.1437C90.6281 71.241 96.1071 74.5703 99.8297 79.1318C103.552 83.6932 105.414 88.9625 105.414 94.9396C105.414 102.385 103.211 108.047 98.8073 111.927C94.4031 115.807 88.9503 118.219 82.4489 119.162V132.375H69.8656Z" fill="#FF4A00"/>
</svg>
