<svg width="132" height="134" viewBox="0 0 132 134" fill="none" xmlns="http://www.w3.org/2000/svg">
<g clip-path="url(#clip0_21_77)">
<path d="M0 100.5V91.7719C0 87.8003 2.01667 84.5677 6.05 82.074C10.0833 79.5802 15.4 78.3333 22 78.3333C23.1917 78.3333 24.3375 78.3564 25.4375 78.4026C26.5375 78.4488 27.5917 78.5642 28.6 78.749C27.3167 80.6885 26.3542 82.7205 25.7125 84.8448C25.0708 86.9691 24.75 89.1858 24.75 91.4948V100.5H0ZM33 100.5V91.4948C33 88.5392 33.8021 85.8377 35.4062 83.3901C37.0104 80.9425 39.2792 78.7951 42.2125 76.9479C45.1458 75.1007 48.6521 73.7153 52.7313 72.7917C56.8104 71.8681 61.2333 71.4062 66 71.4062C70.8583 71.4062 75.3271 71.8681 79.4062 72.7917C83.4854 73.7153 86.9917 75.1007 89.925 76.9479C92.8583 78.7951 95.1042 80.9425 96.6625 83.3901C98.2208 85.8377 99 88.5392 99 91.4948V100.5H33ZM107.25 100.5V91.4948C107.25 89.0934 106.952 86.8306 106.356 84.7062C105.76 82.5819 104.867 80.5962 103.675 78.749C104.683 78.5642 105.715 78.4488 106.769 78.4026C107.823 78.3564 108.9 78.3333 110 78.3333C116.6 78.3333 121.917 79.5571 125.95 82.0047C129.983 84.4523 132 87.708 132 91.7719V100.5H107.25ZM44.6875 89.4167H87.45C86.5333 87.5694 83.9896 85.9531 79.8187 84.5677C75.6479 83.1823 71.0417 82.4896 66 82.4896C60.9583 82.4896 56.3521 83.1823 52.1813 84.5677C48.0104 85.9531 45.5125 87.5694 44.6875 89.4167ZM22 72.7917C18.975 72.7917 16.3854 71.7064 14.2313 69.5359C12.0771 67.3655 11 64.7563 11 61.7083C11 58.5681 12.0771 55.9358 14.2313 53.8115C16.3854 51.6872 18.975 50.625 22 50.625C25.1167 50.625 27.7292 51.6872 29.8375 53.8115C31.9458 55.9358 33 58.5681 33 61.7083C33 64.7563 31.9458 67.3655 29.8375 69.5359C27.7292 71.7064 25.1167 72.7917 22 72.7917ZM110 72.7917C106.975 72.7917 104.385 71.7064 102.231 69.5359C100.077 67.3655 99 64.7563 99 61.7083C99 58.5681 100.077 55.9358 102.231 53.8115C104.385 51.6872 106.975 50.625 110 50.625C113.117 50.625 115.729 51.6872 117.838 53.8115C119.946 55.9358 121 58.5681 121 61.7083C121 64.7563 119.946 67.3655 117.838 69.5359C115.729 71.7064 113.117 72.7917 110 72.7917ZM66 67.25C61.4167 67.25 57.5208 65.6337 54.3125 62.401C51.1042 59.1684 49.5 55.2431 49.5 50.625C49.5 45.9146 51.1042 41.9661 54.3125 38.7797C57.5208 35.5932 61.4167 34 66 34C70.675 34 74.5938 35.5932 77.7562 38.7797C80.9188 41.9661 82.5 45.9146 82.5 50.625C82.5 55.2431 80.9188 59.1684 77.7562 62.401C74.5938 65.6337 70.675 67.25 66 67.25ZM66 56.1667C67.5583 56.1667 68.8646 55.6356 69.9188 54.5734C70.9729 53.5113 71.5 52.1951 71.5 50.625C71.5 49.0549 70.9729 47.7387 69.9188 46.6766C68.8646 45.6144 67.5583 45.0833 66 45.0833C64.4417 45.0833 63.1354 45.6144 62.0813 46.6766C61.0271 47.7387 60.5 49.0549 60.5 50.625C60.5 52.1951 61.0271 53.5113 62.0813 54.5734C63.1354 55.6356 64.4417 56.1667 66 56.1667Z" fill="#FF4A00"/>
</g>
<defs>
<clipPath id="clip0_21_77">
<rect width="132" height="133" fill="white" transform="translate(0 0.75)"/>
</clipPath>
</defs>
</svg>
