<svg width="126" height="126" viewBox="0 0 126 126" fill="none" xmlns="http://www.w3.org/2000/svg">
<path d="M47.375 16.375V5.95833H78.625V16.375H47.375ZM57.7917 73.6667H68.2083V42.4167H57.7917V73.6667ZM63 115.333C56.5764 115.333 50.5217 114.096 44.8359 111.622C39.1502 109.148 34.1806 105.785 29.9271 101.531C25.6736 97.2778 22.3099 92.3082 19.8359 86.6224C17.362 80.9366 16.125 74.8819 16.125 68.4583C16.125 62.0347 17.362 55.98 19.8359 50.2943C22.3099 44.6085 25.6736 39.6389 29.9271 35.3854C34.1806 31.1319 39.1502 27.7682 44.8359 25.2943C50.5217 22.8203 56.5764 21.5833 63 21.5833C68.3819 21.5833 73.5469 22.4514 78.4948 24.1875C83.4427 25.9236 88.0868 28.441 92.4271 31.7396L99.7188 24.4479L107.01 31.7396L99.7188 39.0312C103.017 43.3715 105.535 48.0156 107.271 52.9635C109.007 57.9114 109.875 63.0764 109.875 68.4583C109.875 74.8819 108.638 80.9366 106.164 86.6224C103.69 92.3082 100.326 97.2778 96.0729 101.531C91.8194 105.785 86.8498 109.148 81.1641 111.622C75.4783 114.096 69.4236 115.333 63 115.333ZM63 104.917C73.0694 104.917 81.6632 101.358 88.7812 94.2396C95.8993 87.1215 99.4583 78.5278 99.4583 68.4583C99.4583 58.3889 95.8993 49.7951 88.7812 42.6771C81.6632 35.559 73.0694 32 63 32C52.9306 32 44.3368 35.559 37.2188 42.6771C30.1007 49.7951 26.5417 58.3889 26.5417 68.4583C26.5417 78.5278 30.1007 87.1215 37.2188 94.2396C44.3368 101.358 52.9306 104.917 63 104.917Z" fill="#FF4A00"/>
</svg>
